# xmcd
#
# Track frame offsets: 
#        150
#        16636
#        37676
#        57403
#        75224
#        104746
#        126915
#        146942
#        168575
#        190124
#
# Disc length: 2786 seconds
#
# Revision: 0
# Processed by: cddbd v1.5.2PL0 Copyright (c) Steve Scherf et al.
# Submitted via: ExactAudioCopy v1.0b3
#
DISCID=7d0ae00a
DTITLE=Various Artist - Nhac Tinh Mua Thu
DYEAR=1900
DGENRE=
TTITLE0=Phuong Mai, Tuan Vu - Tuyet lanh
TTITLE1=Giao Linh - Thiep hong bao tin
TTITLE2=Truc Ly - E ngai
TTITLE3=Anh Vu - Thuong han
TTITLE4=Phuong Mai - Tam diep khuc
TTITLE5=Phuong Mai, Tuan Vu - Anh tien tuyen em hau phuong
TTITLE6=Giao Linh - An phan
TTITLE7=Truc Ly - Ngay tron tuoi linh
TTITLE8=Anh Vu - Cam on
TTITLE9=Giao Linh - Toi buoc vao yeu
EXTD=
EXTT0=
EXTT1=
EXTT2=
EXTT3=
EXTT4=
EXTT5=
EXTT6=
EXTT7=
EXTT8=
EXTT9=
PLAYORDER=
